<svg height="55" viewBox="0 0 14.552083 14.552084" width="55" xmlns="http://www.w3.org/2000/svg"><g fill="#fff" stroke-width=".33227113" transform="translate(0 -282.4479)"><path d="m1.8310525 290.26886h2.5651331q.2658169 0 .4120162-.13291.1594901-.1462.1594901-.41202 0-.26581-.1594901-.39872-.1461993-.1462-.4120162-.1462h-2.5651331v-3.09677h2.8176592q.2658169 0 .4120162-.13291.1594901-.1462.1594901-.41201 0-.26582-.1594901-.39873-.1461993-.1462-.4120162-.1462h-3.3625838q-.31898028 0-.47847042.17278-.14619929.17279-.14619929.46518v8.18716q0 .27911.14619929.46518.15949014.17278.47847042.17278h3.3625838q.2658169 0 .4120162-.1329.1594901-.1462.1594901-.41202 0-.26582-.1594901-.39873-.1461993-.14619-.4120162-.14619h-2.8176592z"/><path d="m7.7236731 287.05247h.026582l4.7847042 6.87137q.252526.35885.412016.49176.15949.11962.412016.11962.531634 0 .531634-.69112v-8.30678q0-.2924-.15949-.45189-.15949-.17278-.425307-.17278-.265817 0-.425307.17278-.15949.15949-.15949.45189v6.85807h-.02658l-4.7847041-6.87136q-.252526-.35886-.4120162-.47847-.1594901-.13291-.4120161-.13291-.5316338 0-.5316338.69112v8.30678q0 .2924.1594901.46518.1594901.15949.425307.15949.2658169 0 .4253071-.15949.1594901-.17278.1594901-.46518z"/></g></svg>