<?xml version="1.0" encoding="UTF-8" standalone="no"?>
<svg
   xmlns:dc="http://purl.org/dc/elements/1.1/"
   xmlns:cc="http://creativecommons.org/ns#"
   xmlns:rdf="http://www.w3.org/1999/02/22-rdf-syntax-ns#"
   xmlns:svg="http://www.w3.org/2000/svg"
   xmlns="http://www.w3.org/2000/svg"
   id="svg4743"
   version="1.1"
   width="55"
   viewBox="0 0 14.552083 14.552084"
   height="55">
  <metadata
     id="metadata4749">
    <rdf:RDF>
      <cc:Work
         rdf:about="">
        <dc:format>image/svg+xml</dc:format>
        <dc:type
           rdf:resource="http://purl.org/dc/dcmitype/StillImage" />
        <dc:title></dc:title>
      </cc:Work>
    </rdf:RDF>
  </metadata>
  <defs
     id="defs4747" />
  <path
     d="m 1.8310525,7.82096 h 2.5651331 q 0.2658169,0 0.4120162,-0.13291 0.1594901,-0.1462 0.1594901,-0.41202 0,-0.26581 -0.1594901,-0.39872 Q 4.6620025,6.73111 4.3961856,6.73111 H 1.8310525 V 3.63434 h 2.8176592 q 0.2658169,0 0.4120162,-0.13291 Q 5.220218,3.35523 5.220218,3.08942 5.220218,2.8236 5.0607279,2.69069 4.9145286,2.54449 4.6487117,2.54449 H 1.2861279 q -0.31898028,0 -0.47847042,0.17278 -0.14619929,0.17279 -0.14619929,0.46518 v 8.18716 q 0,0.27911 0.14619929,0.46518 0.15949014,0.17278 0.47847042,0.17278 h 3.3625838 q 0.2658169,0 0.4120162,-0.1329 0.1594901,-0.1462 0.1594901,-0.41202 0,-0.26582 -0.1594901,-0.39873 Q 4.9145286,10.91773 4.6487117,10.91773 H 1.8310525 Z"
     id="path4737"
     style="fill:#ffffff;stroke-width:0.33227113" />
  <path
     d="m 7.7236731,4.60457 h 0.026582 l 4.7847039,6.87137 q 0.252526,0.35885 0.412016,0.49176 0.15949,0.11962 0.412016,0.11962 0.531634,0 0.531634,-0.69112 V 3.08942 q 0,-0.2924 -0.15949,-0.45189 -0.15949,-0.17278 -0.425307,-0.17278 -0.265817,0 -0.425307,0.17278 -0.15949,0.15949 -0.15949,0.45189 v 6.85807 h -0.02658 L 7.9097472,3.07613 Q 7.6572212,2.71727 7.497731,2.59766 7.3382409,2.46475 7.0857149,2.46475 q -0.5316338,0 -0.5316338,0.69112 v 8.30678 q 0,0.2924 0.1594901,0.46518 0.1594901,0.15949 0.425307,0.15949 0.2658169,0 0.4253071,-0.15949 0.1594901,-0.17278 0.1594901,-0.46518 z"
     id="path4739"
     style="fill:#ffffff;stroke-width:0.33227113" />
</svg>
