<?xml version="1.0" encoding="UTF-8" standalone="no"?>
<svg
   xmlns:dc="http://purl.org/dc/elements/1.1/"
   xmlns:cc="http://creativecommons.org/ns#"
   xmlns:rdf="http://www.w3.org/1999/02/22-rdf-syntax-ns#"
   xmlns:svg="http://www.w3.org/2000/svg"
   xmlns="http://www.w3.org/2000/svg"
   id="svg8"
   version="1.1"
   width="55"
   viewBox="0 0 14.552083 14.552084"
   height="55">
  <metadata
     id="metadata14">
    <rdf:RDF>
      <cc:Work
         rdf:about="">
        <dc:format>image/svg+xml</dc:format>
        <dc:type
           rdf:resource="http://purl.org/dc/dcmitype/StillImage" />
        <dc:title></dc:title>
      </cc:Work>
    </rdf:RDF>
  </metadata>
  <defs
     id="defs12" />
  <g
     style="fill:#ffffff;stroke-width:0.33227113"
     id="g6"
     transform="translate(0,-282.44786)">
    <path
       style="fill:#ffffff"
       id="path2"
       d="M 2.8278659,290.26886 H 5.392999 q 0.2658169,0 0.4120162,-0.13291 0.1594901,-0.1462 0.1594901,-0.41202 0,-0.26581 -0.1594901,-0.39872 -0.1461993,-0.1462 -0.4120162,-0.1462 H 2.8278659 v -3.09677 H 5.645525 q 0.2658169,0 0.4120162,-0.13291 0.1594901,-0.1462 0.1594901,-0.41201 0,-0.26582 -0.1594901,-0.39873 -0.1461993,-0.1462 -0.4120162,-0.1462 H 2.2829413 q -0.3189803,0 -0.4784705,0.17278 -0.1461993,0.17279 -0.1461993,0.46518 v 8.18716 q 0,0.27911 0.1461993,0.46518 0.1594902,0.17278 0.4784705,0.17278 H 5.645525 q 0.2658169,0 0.4120162,-0.1329 0.1594901,-0.1462 0.1594901,-0.41202 0,-0.26582 -0.1594901,-0.39873 -0.1461993,-0.14619 -0.4120162,-0.14619 H 2.8278659 Z" />
    <path
       style="fill:#ffffff"
       id="path4"
       d="m 9.9432442,284.91265 q -0.6379606,0 -1.1563035,0.21265 -0.518343,0.21266 -0.8904866,0.5848 -0.3588528,0.35885 -0.5582155,0.78416 -0.1860718,0.42531 -0.1860718,0.85061 0,0.59809 0.1993626,1.0234 0.2126535,0.41201 0.5715064,0.69112 0.3588528,0.27911 0.7442873,0.45189 0.3987253,0.15949 0.9968133,0.37214 0.5050526,0.17279 0.8107416,0.30569 0.31898,0.11962 0.584797,0.31898 0.279108,0.18608 0.425307,0.45189 0.15949,0.26582 0.15949,0.63796 0,0.81074 -0.531633,1.36896 -0.531634,0.55822 -1.40883,0.55822 -0.4917613,0 -0.8639049,-0.13291 -0.3588529,-0.1462 -0.7575782,-0.37215 -0.3854345,-0.22594 -0.5316338,-0.22594 -0.2392352,0 -0.3721437,0.17278 -0.1196176,0.17278 -0.1196176,0.42531 0,0.23923 0.2259444,0.45189 0.2259444,0.21265 0.6113789,0.37214 0.3854345,0.1462 0.850614,0.23923 0.4651796,0.0797 0.94365,0.0797 0.7575779,0 1.3556659,-0.23924 0.598088,-0.23923 1.010105,-0.65125 0.412016,-0.4253 0.624669,-0.95694 0.212654,-0.54492 0.212654,-1.14301 0,-0.62467 -0.225945,-1.06327 -0.212653,-0.45189 -0.584797,-0.74429 -0.358853,-0.29239 -0.757578,-0.46517 -0.398725,-0.18608 -1.036686,-0.41202 -0.4651794,-0.15949 -0.7708688,-0.27911 -0.3056895,-0.13291 -0.5715064,-0.30569 -0.252526,-0.18607 -0.3987253,-0.42531 -0.1461993,-0.25252 -0.1461993,-0.58479 0,-0.59809 0.425307,-0.97023 0.4253071,-0.37215 1.0765585,-0.37215 0.4651793,0 0.7442873,0.10633 0.292399,0.10633 0.571506,0.2924 0.345562,0.21265 0.544925,0.21265 0.212653,0 0.358853,-0.1462 0.146199,-0.15949 0.146199,-0.37214 0,-0.22595 -0.199363,-0.42531 -0.186071,-0.19936 -0.518343,-0.34556 -0.332271,-0.15949 -0.757578,-0.23924 -0.412016,-0.093 -0.8506138,-0.093 z" />
  </g>
</svg>
