<svg height="55" viewBox="0 0 14.552083 14.552084" width="55" xmlns="http://www.w3.org/2000/svg"><g fill="#fff" stroke-width=".33227113" transform="translate(0 -282.4479)"><path d="m2.8278659 290.26886h2.5651331q.2658169 0 .4120162-.13291.1594901-.1462.1594901-.41202 0-.26581-.1594901-.39872-.1461993-.1462-.4120162-.1462h-2.5651331v-3.09677h2.8176591q.2658169 0 .4120162-.13291.1594901-.1462.1594901-.41201 0-.26582-.1594901-.39873-.1461993-.1462-.4120162-.1462h-3.3625837q-.3189803 0-.4784705.17278-.1461993.17279-.1461993.46518v8.18716q0 .27911.1461993.46518.1594902.17278.4784705.17278h3.3625837q.2658169 0 .4120162-.1329.1594901-.1462.1594901-.41202 0-.26582-.1594901-.39873-.1461993-.14619-.4120162-.14619h-2.8176591z"/><path d="m9.9432442 284.91265q-.6379606 0-1.1563035.21265-.518343.21266-.8904866.5848-.3588528.35885-.5582155.78416-.1860718.42531-.1860718.85061 0 .59809.1993626 1.0234.2126535.41201.5715064.69112.3588528.27911.7442873.45189.3987253.15949.9968133.37214.5050526.17279.8107416.30569.31898.11962.584797.31898.279108.18608.425307.45189.15949.26582.15949.63796 0 .81074-.531633 1.36896-.531634.55822-1.40883.55822-.4917613 0-.8639049-.13291-.3588529-.1462-.7575782-.37215-.3854345-.22594-.5316338-.22594-.2392352 0-.3721437.17278-.1196176.17278-.1196176.42531 0 .23923.2259444.45189.2259444.21265.6113789.37214.3854345.1462.850614.23923.4651796.0797.94365.0797.7575779 0 1.3556659-.23924.598088-.23923 1.010105-.65125.412016-.4253.624669-.95694.212654-.54492.212654-1.14301 0-.62467-.225945-1.06327-.212653-.45189-.584797-.74429-.358853-.29239-.757578-.46517-.398725-.18608-1.036686-.41202-.4651794-.15949-.7708688-.27911-.3056895-.13291-.5715064-.30569-.252526-.18607-.3987253-.42531-.1461993-.25252-.1461993-.58479 0-.59809.425307-.97023.4253071-.37215 1.0765585-.37215.4651793 0 .7442873.10633.292399.10633.571506.2924.345562.21265.544925.21265.212653 0 .358853-.1462.146199-.15949.146199-.37214 0-.22595-.199363-.42531-.186071-.19936-.518343-.34556-.332271-.15949-.757578-.23924-.412016-.093-.8506138-.093z"/></g></svg>