<svg height="55" viewBox="0 0 14.552083 14.552084" width="55" xmlns="http://www.w3.org/2000/svg"><g fill="#fff" stroke-width=".33227113" transform="translate(0 -282.4479)"><path d="m2.8219472 290.229h2.4588063q.2658169 0 .4120162-.13291.1594901-.14619.1594901-.41201 0-.26582-.1594901-.39873-.1461993-.1462-.4120162-.1462h-2.4588063v-3.09676h2.7777865q.2658169 0 .4120162-.13291.1594902-.1462.1594902-.41202 0-.26581-.1594902-.39872-.1461993-.1462-.4120162-.1462h-3.3227112q-.3189803 0-.4784704.17278-.1461993.17278-.1461993.46518v8.28019q0 .2924.1594901.46518.1594902.15949.4253071.15949.2658169 0 .425307-.15949.1594902-.17278.1594902-.46518z"/><path d="m8.2213531 290.26888l3.6151099 3.96067q.239235.26581.531634.26581.225944 0 .372143-.1329.159491-.13291.159491-.31898 0-.2924-.225945-.53164l-3.0170216-3.30942.5050516-.0133q.558216-.0266 1.010105-.17278.465179-.15949.810741-.47847.358853-.33227.558216-.83732.199362-.50506.199362-1.19618 0-.55822-.239235-1.03669-.239235-.47847-.651251-.81074-.398726-.34556-.930359-.51834-.518343-.18607-1.0765588-.18607h-2.1664077q-.3189803 0-.4784705.17278-.1461992.17278-.1461992.46518v8.28019q0 .2924.1594901.46518.1594901.15949.425307.15949.2658169 0 .4253071-.15949.1594901-.17278.1594901-.46518zm0-4.30624h1.5683197q.7974512 0 1.2892122.47847.491761.46518.491761 1.14301 0 .91707-.425307 1.32909-.412016.41202-1.3290845.41202h-1.5949014z"/></g></svg>