<?xml version="1.0" encoding="UTF-8" standalone="no"?>
<svg
   xmlns:dc="http://purl.org/dc/elements/1.1/"
   xmlns:cc="http://creativecommons.org/ns#"
   xmlns:rdf="http://www.w3.org/1999/02/22-rdf-syntax-ns#"
   xmlns:svg="http://www.w3.org/2000/svg"
   xmlns="http://www.w3.org/2000/svg"
   id="svg4575"
   version="1.1"
   width="55"
   viewBox="0 0 14.552083 14.552084"
   height="55">
  <metadata
     id="metadata4581">
    <rdf:RDF>
      <cc:Work
         rdf:about="">
        <dc:format>image/svg+xml</dc:format>
        <dc:type
           rdf:resource="http://purl.org/dc/dcmitype/StillImage" />
        <dc:title></dc:title>
      </cc:Work>
    </rdf:RDF>
  </metadata>
  <defs
     id="defs4579" />
  <g
     style="fill:#ffffff;stroke-width:0.33227113"
     id="g4573"
     transform="translate(-1.5000001e-7,-282.4479)">
    <path
       style="fill:#ffffff"
       id="path4569"
       d="m 2.8219472,290.229 h 2.4588063 q 0.2658169,0 0.4120162,-0.13291 0.1594901,-0.14619 0.1594901,-0.41201 0,-0.26582 -0.1594901,-0.39873 -0.1461993,-0.1462 -0.4120162,-0.1462 H 2.8219472 v -3.09676 h 2.7777865 q 0.2658169,0 0.4120162,-0.13291 0.1594902,-0.1462 0.1594902,-0.41202 0,-0.26581 -0.1594902,-0.39872 -0.1461993,-0.1462 -0.4120162,-0.1462 H 2.2770225 q -0.3189803,0 -0.4784704,0.17278 -0.1461993,0.17278 -0.1461993,0.46518 v 8.28019 q 0,0.2924 0.1594901,0.46518 0.1594902,0.15949 0.4253071,0.15949 0.2658169,0 0.425307,-0.15949 0.1594902,-0.17278 0.1594902,-0.46518 z" />
    <path
       style="fill:#ffffff"
       id="path4571"
       d="m 8.2213531,290.26888 3.6151099,3.96067 q 0.239235,0.26581 0.531634,0.26581 0.225944,0 0.372143,-0.1329 0.159491,-0.13291 0.159491,-0.31898 0,-0.2924 -0.225945,-0.53164 l -3.0170216,-3.30942 0.5050516,-0.0133 q 0.558216,-0.0266 1.010105,-0.17278 0.465179,-0.15949 0.810741,-0.47847 0.358853,-0.33227 0.558216,-0.83732 0.199362,-0.50506 0.199362,-1.19618 0,-0.55822 -0.239235,-1.03669 -0.239235,-0.47847 -0.651251,-0.81074 -0.398726,-0.34556 -0.930359,-0.51834 -0.518343,-0.18607 -1.0765588,-0.18607 H 7.6764285 q -0.3189803,0 -0.4784705,0.17278 -0.1461992,0.17278 -0.1461992,0.46518 v 8.28019 q 0,0.2924 0.1594901,0.46518 0.1594901,0.15949 0.425307,0.15949 0.2658169,0 0.4253071,-0.15949 0.1594901,-0.17278 0.1594901,-0.46518 z m 0,-4.30624 h 1.5683197 q 0.7974512,0 1.2892122,0.47847 0.491761,0.46518 0.491761,1.14301 0,0.91707 -0.425307,1.32909 -0.412016,0.41202 -1.3290845,0.41202 H 8.2213531 Z" />
  </g>
</svg>
