<?xml version="1.0" encoding="UTF-8" standalone="no"?>
<svg
   xmlns:dc="http://purl.org/dc/elements/1.1/"
   xmlns:cc="http://creativecommons.org/ns#"
   xmlns:rdf="http://www.w3.org/1999/02/22-rdf-syntax-ns#"
   xmlns:svg="http://www.w3.org/2000/svg"
   xmlns="http://www.w3.org/2000/svg"
   id="svg5470"
   version="1.1"
   width="55"
   viewBox="0 0 55 55"
   height="55">
  <metadata
     id="metadata5476">
    <rdf:RDF>
      <cc:Work
         rdf:about="">
        <dc:format>image/svg+xml</dc:format>
        <dc:type
           rdf:resource="http://purl.org/dc/dcmitype/StillImage" />
        <dc:title></dc:title>
      </cc:Work>
    </rdf:RDF>
  </metadata>
  <defs
     id="defs5474" />
  <path
     style="fill:#ffffff;stroke-width:0.50502616"
     id="path5468"
     d="m 14.05368,25.934685 c 0.292916,1.040354 0.838344,2.964503 2.070607,4.181616 a 14.352843,14.352843 0 0 0 2.393824,4.772497 v 1.838295 a 0.12625653,0.12625653 0 0 1 -0.09596,0.126257 C 13.710258,37.939156 2.7663409,41.398585 2.7663409,50.095135 a 1.7120385,1.7120385 0 0 0 1.706989,1.706988 H 50.572113 a 1.7120385,1.7120385 0 0 0 1.691837,-1.712038 c 0,-8.68645 -10.954016,-12.150929 -15.655809,-13.241786 a 0.13130679,0.13130679 0 0 1 -0.09596,-0.126256 v -1.868596 a 14.292239,14.292239 0 0 0 2.393824,-4.737146 c 1.237314,-1.217113 1.782742,-3.121061 2.075658,-4.181616 0.479774,-1.686787 0.959549,-4.131114 -0.363619,-5.878504 l -0.05555,-0.07575 C 41.198834,16.894718 41.991725,9.667793 36.48694,5.996253 a 3.3937755,3.3937755 0 0 0 0.96965,-2.4695768 0.32321672,0.32321672 0 0 0 -0.116156,-0.227262 0.34341776,0.34341776 0 0 0 -0.227261,-0.08081 c -0.0707,0 -6.95421,0.7827908 -10.272232,0.09596 -3.413975,-0.701987 -7.156219,1.8837468 -7.908708,4.5300828 a 4.9947083,4.9947083 0 0 0 -3.262469,1.843346 c -1.515078,1.853447 -1.964551,4.802799 -1.368621,8.762204 0.0404,0.505026 0.101005,1.010052 0.19191,1.515079 l -0.0606,0.07575 c -1.338319,1.757491 -0.858545,4.206867 -0.37877,5.893655 z m 13.463996,17.564809 a 9.0349173,9.0349173 0 0 1 -7.403682,-3.681641 3.5351828,3.5351828 0 0 0 1.611033,-1.914049 11.464093,11.464093 0 0 0 2.469578,1.212063 9.9641655,9.9641655 0 0 0 6.646143,0 11.711555,11.711555 0 0 0 2.464528,-1.242364 3.5351828,3.5351828 0 0 0 1.616083,1.9393 9.0349173,9.0349173 0 0 1 -7.403683,3.686691 z M 16.861626,21.904577 a 0.69693605,0.69693605 0 0 1 0.60098,-0.262614 h 0.146459 a 0.32321672,0.32321672 0 0 0 0.343417,-0.297965 c 0,-0.04545 0.37877,-4.661391 3.116011,-6.322927 1.368621,-0.833293 3.121062,-0.797942 5.211869,0.0909 4.267471,1.838295 7.474387,1.722139 9.413687,1.277716 2.217065,1.636284 1.575682,4.24727 1.424174,4.757346 v 0.06565 a 0.32321672,0.32321672 0 0 0 0.0505,0.308065 0.32826698,0.32826698 0 0 0 0.287865,0.121206 0.78279048,0.78279048 0 0 1 0.732288,0.252514 c 0.20706,0.272714 0.459573,1.050454 -0.146458,3.191765 -0.77774,2.742291 -1.409023,2.999855 -1.580732,3.030157 a 0.32321672,0.32321672 0 0 0 -0.297966,0.272722 c -0.454523,2.924101 -2.777643,6.56534 -6.348178,7.848106 a 6.8431039,6.8431039 0 0 1 -4.585637,0 C 21.512916,34.9292 19.341304,31.24756 18.896881,28.384062 a 0.32321672,0.32321672 0 0 0 -0.297965,-0.272714 c -0.17676,0 -0.808042,-0.272714 -1.580732,-3.030157 -0.611082,-2.12616 -0.363619,-2.9039 -0.156558,-3.176614 z m 26.453267,3.110961 a 4.5957377,4.5957377 0 0 0 0,-4.782598 1.3635705,1.3635705 0 0 1 0.166658,-1.686787 l 0.07575,-0.07575 a 1.3837715,1.3837715 0 0 1 2.141311,0.212111 7.444085,7.444085 0 0 1 0,7.893559 1.3837715,1.3837715 0 0 1 -2.141311,0.21211 l -0.07575,-0.07575 a 1.3635705,1.3635705 0 0 1 -0.166658,-1.696895 z m 6.38858,-10.494443 a 13.130679,13.130679 0 0 1 0,16.201238 1.3938721,1.3938721 0 0 1 -2.090807,0.101005 l -0.0404,-0.0404 a 1.3837715,1.3837715 0 0 1 -0.101005,-1.818093 10.24193,10.24193 0 0 0 0,-12.676156 1.3837715,1.3837715 0 0 1 0.111106,-1.838295 l 0.04546,-0.04546 a 1.3938721,1.3938721 0 0 1 2.075657,0.116157 z M 9.3367359,26.581118 a 7.444085,7.444085 0 0 1 0,-7.893558 1.3837715,1.3837715 0 0 1 2.1413111,-0.212111 l 0.07576,0.07576 a 1.3635705,1.3635705 0 0 1 0.166659,1.686787 4.5957377,4.5957377 0 0 0 0,4.782597 1.3635705,1.3635705 0 0 1 -0.166659,1.686788 l -0.07576,0.07575 A 1.3837715,1.3837715 0 0 1 9.3367359,26.581118 Z m -4.040209,4.146265 a 13.130679,13.130679 0 0 1 0,-16.201238 1.3938721,1.3938721 0 0 1 2.075658,-0.116156 l 0.04545,0.04545 a 1.3837715,1.3837715 0 0 1 0.111106,1.838295 10.24193,10.24193 0 0 0 0,12.676156 1.3837715,1.3837715 0 0 1 -0.101006,1.818094 l -0.0404,0.0404 a 1.3938721,1.3938721 0 0 1 -2.090808,-0.101005 z" />
</svg>
