<svg height="55" viewBox="0 0 55 55" width="55" xmlns="http://www.w3.org/2000/svg"><path d="m14.05368 25.934685c.292916 1.040354.838344 2.964503 2.070607 4.181616a14.352843 14.352843 0 0 0 2.393824 4.772497v1.838295a.12625653.12625653 0 0 1 -.09596.126257c-4.711893 1.085806-15.6558102 4.545235-15.6558102 13.241785a1.7120385 1.7120385 0 0 0 1.706989 1.706988h46.0987832a1.7120385 1.7120385 0 0 0 1.691837-1.712038c0-8.68645-10.954016-12.150929-15.655809-13.241786a.13130679.13130679 0 0 1 -.09596-.126256v-1.868596a14.292239 14.292239 0 0 0 2.393824-4.737146c1.237314-1.217113 1.782742-3.121061 2.075658-4.181616.479774-1.686787.959549-4.131114-.363619-5.878504l-.05555-.07575c.63634-3.085713 1.429231-10.3126376-4.075554-13.9841776a3.3937755 3.3937755 0 0 0  .96965-2.469577.32321672.32321672 0 0 0 -.116156-.227262.34341776.34341776 0 0 0 -.227261-.08081c-.0707 0-6.95421.782791-10.272232.09596-3.413975-.701987-7.156219 1.883747-7.908708 4.530083a4.9947083 4.9947083 0 0 0 -3.262469 1.843346c-1.515078 1.8534466-1.964551 4.8027986-1.368621 8.7622036.0404.505026.101005 1.010052.19191 1.515079l-.0606.07575c-1.338319 1.757491-.858545 4.206867-.37877 5.893655zm13.463996 17.564809a9.0349173 9.0349173 0 0 1 -7.403682-3.681641 3.5351828 3.5351828 0 0 0  1.611033-1.914049 11.464093 11.464093 0 0 0  2.469578 1.212063 9.9641655 9.9641655 0 0 0  6.646143 0 11.711555 11.711555 0 0 0  2.464528-1.242364 3.5351828 3.5351828 0 0 0  1.616083 1.9393 9.0349173 9.0349173 0 0 1 -7.403683 3.686691zm-10.65605-21.594917a.69693605.69693605 0 0 1  .60098-.262614h.146459a.32321672.32321672 0 0 0  .343417-.297965c0-.04545.37877-4.661391 3.116011-6.322927 1.368621-.833293 3.121062-.797942 5.211869.0909 4.267471 1.838295 7.474387 1.722139 9.413687 1.277716 2.217065 1.636284 1.575682 4.24727 1.424174 4.757346v.06565a.32321672.32321672 0 0 0  .0505.308065.32826698.32826698 0 0 0  .287865.121206.78279048.78279048 0 0 1  .732288.252514c.20706.272714.459573 1.050454-.146458 3.191765-.77774 2.742291-1.409023 2.999855-1.580732 3.030157a.32321672.32321672 0 0 0 -.297966.272722c-.454523 2.924101-2.777643 6.56534-6.348178 7.848106a6.8431039 6.8431039 0 0 1 -4.585637 0c-3.716989-1.308018-5.888601-4.989658-6.333024-7.853156a.32321672.32321672 0 0 0 -.297965-.272714c-.17676 0-.808042-.272714-1.580732-3.030157-.611082-2.12616-.363619-2.9039-.156558-3.176614zm26.453267 3.110961a4.5957377 4.5957377 0 0 0 0-4.782598 1.3635705 1.3635705 0 0 1  .166658-1.686787l.07575-.07575a1.3837715 1.3837715 0 0 1 2.141311.212111 7.444085 7.444085 0 0 1  0 7.893559 1.3837715 1.3837715 0 0 1 -2.141311.21211l-.07575-.07575a1.3635705 1.3635705 0 0 1 -.166658-1.696895zm6.38858-10.494443a13.130679 13.130679 0 0 1 0 16.201238 1.3938721 1.3938721 0 0 1 -2.090807.101005l-.0404-.0404a1.3837715 1.3837715 0 0 1 -.101005-1.818093 10.24193 10.24193 0 0 0  0-12.676156 1.3837715 1.3837715 0 0 1  .111106-1.838295l.04546-.04546a1.3938721 1.3938721 0 0 1 2.075657.116157zm-40.3667372 12.060023a7.444085 7.444085 0 0 1 0-7.893558 1.3837715 1.3837715 0 0 1  2.1413112-.212111l.07576.07576a1.3635705 1.3635705 0 0 1  .166659 1.686787 4.5957377 4.5957377 0 0 0  0 4.782597 1.3635705 1.3635705 0 0 1 -.166659 1.686788l-.07576.07575a1.3837715 1.3837715 0 0 1 -2.1413112-.202012zm-4.040209 4.146265a13.130679 13.130679 0 0 1 0-16.201238 1.3938721 1.3938721 0 0 1  2.075658-.116156l.04545.04545a1.3837715 1.3837715 0 0 1  .111106 1.838295 10.24193 10.24193 0 0 0  0 12.676156 1.3837715 1.3837715 0 0 1 -.101006 1.818094l-.0404.0404a1.3938721 1.3938721 0 0 1 -2.090808-.101005z" fill="#fff" stroke-width=".50502616"/></svg>