<svg height="55" viewBox="0 0 55 55" width="55" xmlns="http://www.w3.org/2000/svg"><path d="m20.875839 27.729435c.144302.512518.412999 1.460425 1.020059 2.060021a7.0707481 7.0707481 0 0 0 1.179288 2.351111v.905613a.06219869.06219869 0 0 1 -.04728.0622c-2.321252.534912-7.712636 2.239157-7.712636 6.523403a.84341428.84341428 0 0 0  .840927.840926h22.709987a.84341428.84341428 0 0 0  .833463-.843414c0-4.27927-5.396358-5.986003-7.712638-6.523399a.06468664.06468664 0 0 1 -.04728-.0622v-.920541a7.0408923 7.0408923 0 0 0 1.179286-2.333695c.609548-.599595.878246-1.537552 1.022547-2.060021.236355-.830974.47271-2.035141-.179132-2.895971l-.02737-.03732c.313485-1.520138.704092-5.080391-2.007771-6.88913a1.6719009 1.6719009 0 0 0  .477686-1.216606.15922867.15922867 0 0 0 -.05722-.111952.16918046.16918046 0 0 0 -.111952-.03982c-.03483 0-3.425904.385631-5.060486.04728-1.681852-.345826-3.525422.928004-3.896126 2.231688a2.4605804 2.4605804 0 0 0 -1.607215.908102c-.746384.913076-.967811 2.366038-.674233 4.316589.0199.248796.04976.49759.09454.746385l-.02985.03732c-.659306.865805-.422951 2.07246-.186596 2.903435zm6.63287 8.653084a4.4509387 4.4509387 0 0 1 -3.647333-1.813715 1.7415634 1.7415634 0 0 0  .793656-.942932 5.6476416 5.6476416 0 0 0  1.216607.597106 4.9087212 4.9087212 0 0 0  3.274138 0 5.7695507 5.7695507 0 0 0  1.21412-.612034 1.7415634 1.7415634 0 0 0  .796143.955372 4.4509387 4.4509387 0 0 1 -3.647331 1.816203zm-5.24957-10.638467a.3433368.3433368 0 0 1  .296065-.129373h.07216a.15922867.15922867 0 0 0  .16918-.146788c0-.02239.186596-2.296377 1.535064-3.114911.674234-.410511 1.537551-.393097 2.567562.04478 2.102316.905613 3.682163.84839 4.637535.62945 1.092209.806095.77624 2.092364.701602 2.343647v.03234a.15922867.15922867 0 0 0  .02488.151764.16171661.16171661 0 0 0  .141813.05971.38563191.38563191 0 0 1  .360752.124398c.102001.134349.226403.517493-.07216 1.572383-.383144 1.350956-.694137 1.477841-.778727 1.49277a.15922867.15922867 0 0 0 -.14679.134352c-.223915 1.440522-1.368371 3.234332-3.12735 3.866271a3.3711694 3.3711694 0 0 1 -2.259057 0c-1.831128-.644375-2.900947-2.458088-3.119885-3.868756a.15922867.15922867 0 0 0 -.146788-.134348c-.08707 0-.398074-.134349-.77873-1.492769-.301041-1.047426-.179131-1.43057-.07712-1.56492zm13.031869 1.532577a2.2640326 2.2640326 0 0 0 0-2.356087.6717459.6717459 0 0 1  .0821-.830974l.03732-.03732a.68169767.68169767 0 0 1 1.054889.104489 3.6672351 3.6672351 0 0 1  0 3.888663.68169767.68169767 0 0 1 -1.054889.104488l-.03732-.03731a.6717459.6717459 0 0 1 -.0821-.835954zm3.147254-5.169956a6.4686643 6.4686643 0 0 1 0 7.981337.68667361.68667361 0 0 1 -1.03001.04976l-.0199-.0199a.68169767.68169767 0 0 1 -.04976-.895661 5.0455584 5.0455584 0 0 0  0-6.24475.68169767.68169767 0 0 1  .05473-.905613l.0224-.0224a.68667361.68667361 0 0 1 1.022547.05722zm-19.886167 5.941219a3.6672351 3.6672351 0 0 1 0-3.888662.68169767.68169767 0 0 1  1.054891-.104488l.03733.03733a.6717459.6717459 0 0 1  .0821.830975 2.2640326 2.2640326 0 0 0  0 2.356087.6717459.6717459 0 0 1 -.0821.830974l-.03733.03732a.68169767.68169767 0 0 1 -1.054891-.09952zm-1.990357 2.042606a6.4686643 6.4686643 0 0 1 0-7.981337.68667361.68667361 0 0 1  1.022546-.05722l.02239.02239a.68169767.68169767 0 0 1  .05473.905613 5.0455584 5.0455584 0 0 0  0 6.244749.68169767.68169767 0 0 1 -.04976.895661l-.0199.0199a.68667361.68667361 0 0 1 -1.03001-.04976z" fill="#fff" stroke-width=".24879481"/><path d="m14.65625 9.96875a3.002603 3.002603 0 0 0  .0625 6l12.53125 1.125c-10.430533 7.227833-17.25 19.284-17.25 32.90625 0 22.0558 17.944144 40 40 40 22.055856 0 40-17.9442 40-40 0-18.68954-12.871708-34.53292-30.25-38.90625a3.0003 3.0003 0 0 0 -.90625-.09375 3.0003 3.0003 0 0 0 -.59375 5.90625c14.73254 3.70751 25.75 17.16447 25.75 33.09375 0 18.8132-15.186784 34-34 34-18.813216 0-34-15.1868-34-34 0-12.798557 7.059319-23.884613 17.46875-29.6875l-1.46875 16.40625a3.0117365 3.0117365 0 1 0 6 .53125l2-22a3.0003 3.0003 0 0 0 -2.71875-3.25l-22-2a3.0003 3.0003 0 0 0 -.3125-.03125 3.002603 3.002603 0 0 0 -.3125 0z" fill="#fff" overflow="visible" transform="matrix(.625 0 0 .625 -3.75 -3.7389675)"/></svg>