<?xml version="1.0" encoding="UTF-8" standalone="no"?>
<svg
   xmlns:dc="http://purl.org/dc/elements/1.1/"
   xmlns:cc="http://creativecommons.org/ns#"
   xmlns:rdf="http://www.w3.org/1999/02/22-rdf-syntax-ns#"
   xmlns:svg="http://www.w3.org/2000/svg"
   xmlns="http://www.w3.org/2000/svg"
   id="svg6"
   version="1.1"
   width="55"
   viewBox="0 0 55 55"
   height="55">
  <metadata
     id="metadata12">
    <rdf:RDF>
      <cc:Work
         rdf:about="">
        <dc:format>image/svg+xml</dc:format>
        <dc:type
           rdf:resource="http://purl.org/dc/dcmitype/StillImage" />
        <dc:title></dc:title>
      </cc:Work>
    </rdf:RDF>
  </metadata>
  <defs
     id="defs10" />
  <path
     style="fill:#ffffff;stroke-width:0.24879481"
     id="path2"
     d="m 20.875839,26.728863 c 0.144302,0.512518 0.412999,1.460425 1.020059,2.060021 a 7.0707481,7.0707481 0 0 0 1.179288,2.351111 v 0.905613 a 0.06219869,0.06219869 0 0 1 -0.04728,0.0622 c -2.321252,0.534912 -7.712636,2.239157 -7.712636,6.523403 a 0.84341428,0.84341428 0 0 0 0.840927,0.840926 h 22.709987 a 0.84341428,0.84341428 0 0 0 0.833463,-0.843414 c 0,-4.27927 -5.396358,-5.986003 -7.712638,-6.523399 a 0.06468664,0.06468664 0 0 1 -0.04728,-0.0622 v -0.920541 a 7.0408923,7.0408923 0 0 0 1.179286,-2.333695 c 0.609548,-0.599595 0.878246,-1.537552 1.022547,-2.060021 0.236355,-0.830974 0.47271,-2.035141 -0.179132,-2.895971 l -0.02737,-0.03732 c 0.313485,-1.520138 0.704092,-5.080391 -2.007771,-6.88913 a 1.6719009,1.6719009 0 0 0 0.477686,-1.216606 0.15922867,0.15922867 0 0 0 -0.05722,-0.111952 0.16918046,0.16918046 0 0 0 -0.111952,-0.03982 c -0.03483,0 -3.425904,0.385631 -5.060486,0.04728 -1.681852,-0.345826 -3.525422,0.928004 -3.896126,2.231688 a 2.4605804,2.4605804 0 0 0 -1.607215,0.908102 c -0.746384,0.913076 -0.967811,2.366038 -0.674233,4.316589 0.0199,0.248796 0.04976,0.49759 0.09454,0.746385 l -0.02985,0.03732 c -0.659306,0.865805 -0.422951,2.07246 -0.186596,2.903435 z m 6.63287,8.653084 a 4.4509387,4.4509387 0 0 1 -3.647333,-1.813715 1.7415634,1.7415634 0 0 0 0.793656,-0.942932 5.6476416,5.6476416 0 0 0 1.216607,0.597106 4.9087212,4.9087212 0 0 0 3.274138,0 5.7695507,5.7695507 0 0 0 1.21412,-0.612034 1.7415634,1.7415634 0 0 0 0.796143,0.955372 4.4509387,4.4509387 0 0 1 -3.647331,1.816203 z M 22.259139,24.74348 a 0.3433368,0.3433368 0 0 1 0.296065,-0.129373 h 0.07216 a 0.15922867,0.15922867 0 0 0 0.16918,-0.146788 c 0,-0.02239 0.186596,-2.296377 1.535064,-3.114911 0.674234,-0.410511 1.537551,-0.393097 2.567562,0.04478 2.102316,0.905613 3.682163,0.84839 4.637535,0.62945 1.092209,0.806095 0.77624,2.092364 0.701602,2.343647 v 0.03234 a 0.15922867,0.15922867 0 0 0 0.02488,0.151764 0.16171661,0.16171661 0 0 0 0.141813,0.05971 0.38563191,0.38563191 0 0 1 0.360752,0.124398 c 0.102001,0.134349 0.226403,0.517493 -0.07216,1.572383 -0.383144,1.350956 -0.694137,1.477841 -0.778727,1.49277 a 0.15922867,0.15922867 0 0 0 -0.14679,0.134352 c -0.223915,1.440522 -1.368371,3.234332 -3.12735,3.866271 a 3.3711694,3.3711694 0 0 1 -2.259057,0 C 24.55054,31.159898 23.480721,29.346185 23.261783,27.935517 a 0.15922867,0.15922867 0 0 0 -0.146788,-0.134348 c -0.08707,0 -0.398074,-0.134349 -0.77873,-1.492769 -0.301041,-1.047426 -0.179131,-1.43057 -0.07712,-1.56492 z m 13.031869,1.532577 a 2.2640326,2.2640326 0 0 0 0,-2.356087 0.6717459,0.6717459 0 0 1 0.0821,-0.830974 l 0.03732,-0.03732 a 0.68169767,0.68169767 0 0 1 1.054889,0.104489 3.6672351,3.6672351 0 0 1 0,3.888663 0.68169767,0.68169767 0 0 1 -1.054889,0.104488 l -0.03732,-0.03731 a 0.6717459,0.6717459 0 0 1 -0.0821,-0.835954 z m 3.147254,-5.169956 a 6.4686643,6.4686643 0 0 1 0,7.981337 0.68667361,0.68667361 0 0 1 -1.03001,0.04976 l -0.0199,-0.0199 a 0.68169767,0.68169767 0 0 1 -0.04976,-0.895661 5.0455584,5.0455584 0 0 0 0,-6.24475 0.68169767,0.68169767 0 0 1 0.05473,-0.905613 l 0.0224,-0.0224 a 0.68667361,0.68667361 0 0 1 1.022547,0.05722 z M 18.552095,27.04732 a 3.6672351,3.6672351 0 0 1 0,-3.888662 0.68169767,0.68169767 0 0 1 1.054891,-0.104488 l 0.03733,0.03733 a 0.6717459,0.6717459 0 0 1 0.0821,0.830975 2.2640326,2.2640326 0 0 0 0,2.356087 0.6717459,0.6717459 0 0 1 -0.0821,0.830974 l -0.03733,0.03732 a 0.68169767,0.68169767 0 0 1 -1.054891,-0.09952 z m -1.990357,2.042606 a 6.4686643,6.4686643 0 0 1 0,-7.981337 0.68667361,0.68667361 0 0 1 1.022546,-0.05722 l 0.02239,0.02239 a 0.68169767,0.68169767 0 0 1 0.05473,0.905613 5.0455584,5.0455584 0 0 0 0,6.244749 0.68169767,0.68169767 0 0 1 -0.04976,0.895661 l -0.0199,0.0199 a 0.68667361,0.68667361 0 0 1 -1.03001,-0.04976 z" />
  <path
     style="overflow:visible;fill:#ffffff;stroke-width:0.625"
     id="path4"
     overflow="visible"
     d="m 5.4101553,2.4915053 a 1.8766269,1.8766269 0 0 0 0.039063,3.75 L 13.28125,6.9446303 C 6.7621664,11.462026 2.4999995,18.99713 2.4999995,27.511036 c 0,13.784875 11.2150905,25 24.9999995,25 13.78491,0 25.000001,-11.215125 25.000001,-25 C 52.5,15.830074 44.455182,5.9279613 33.59375,3.1946303 a 1.8751875,1.8751875 0 0 0 -0.566407,-0.05859 1.8751875,1.8751875 0 0 0 -0.371093,3.691407 C 41.864087,9.1446403 48.75,17.55524 48.75,27.51104 c 0,11.75825 -9.49174,21.25 -21.25,21.25 -11.75826,0 -21.2500005,-9.49175 -21.2500005,-21.25 0,-7.999098 4.4120745,-14.927883 10.9179685,-18.5546867 L 16.249999,19.210255 a 1.8823353,1.8823353 0 1 0 3.75,0.332031 l 1.25,-13.7499997 a 1.8751875,1.8751875 0 0 0 -1.699219,-2.03125 l -13.7499997,-1.25 a 1.8751875,1.8751875 0 0 0 -0.1953125,-0.01953 1.8766269,1.8766269 0 0 0 -0.1953125,0 z" />
</svg>
