<?xml version="1.0" ?><!DOCTYPE svg  PUBLIC '-//W3C//DTD SVG 1.1//EN'  'http://www.w3.org/Graphics/SVG/1.1/DTD/svg11.dtd' [
	<!ENTITY stroke_color "#666666">
	<!ENTITY fill_color "#ffffff">
]><svg height="55" viewBox="0 0 55 55" width="55" xmlns="http://www.w3.org/2000/svg"><g fill="&fill_color;" stroke="&stroke_color;"><path d="m27.5 51.5c-13.165867 0-24-10.834133-24-24 0-13.165867 10.834133-24 24-24 13.165867 0 24 10.834133 24 24-.173867 13.275733-10.2272 23.316267-23.384534 23.992534zm-.522667-16.3808c1.538134.07573 3.051734-.759466 3.5104-2.289067.252801-.843733.146134-1.931733.146134-2.7456 2.6272-.667733 5.202133-1.9776 6.759467-4.274133 1.983999-2.9248 2.0448-7.125333.388266-10.208-2.024533-3.768533-6.228267-5.409067-10.3168-5.488-2.282667.03947-4.568533.674133-6.545067 1.824-2.482133 1.445333-4.705067 4.154667-3.990399 7.198934.188799.802133.638933 1.551999 1.361066 1.976533 2.597333 1.525333 4.410666-1.623467 5.986133-3.077334.937601-.864 2.2656-1.461333 3.564801-1.279999 1.540266.214399 3.010132 1.135999 3.469866 2.685866.161067.544.1664 1.1168.08747 1.675733-.263467 1.8752-1.7472 2.718934-3.431466 3.245867-1.469867.459733-4.174934.603733-4.247467 2.647466h.0011v4.8c-.01067 1.805867 1.1904 2.985601 2.871467 3.275734zm.0064 10.321066c2.1088.102401 3.936-1.624532 3.936-3.740799 0-2.076801-1.706666-3.6928-3.744-3.744-2.072533.0043-3.899733 1.826133-3.738666 3.936.1408 1.856 1.374933 3.141333 3.169066 3.510399z" stroke-width="1.0015748"/><g><g fill="#fff" stroke="&stroke_color;" stroke-width="2.09378099" transform="matrix(.49175612 0 0 .44506553 27.229512 32.936252)"><path d="m5.962 43.944h42.826v-20.942l-11.939-11.944h-30.887z"/><path d="m36.849 11.058v11.944h11.939" opacity=".98999999" transform="translate(-.53922063 .59578877)"/></g><g fill="&stroke_color;" stroke="none" transform="matrix(1.0826179 0 0 1.0826179 -3.1187403 -2.4410496)"><path d="m40.465838 41.462905c-2.993558 0-5.487233 2.985426-5.487233 2.985426 0 0 2.493675 2.999777 5.487233 2.997863 2.994036-.0024 5.489146-3.001212 5.489146-3.001212 0 0-2.49511-2.983991-5.489146-2.982077zm0 5.090675c-1.159059 0-2.098552-.94045-2.098552-2.099509 0-1.157145.939493-2.09903 2.098552-2.09903 1.157624 0 2.098073.941885 2.098073 2.09903 0 1.159537-.940449 2.099509-2.098073 2.099509z"/><circle cx="40.465839" cy="44.455029" r=".95240879"/></g></g></g></svg>